<?xml version="1.0" encoding="UTF-8" standalone="no"?>
<!-- Created with Inkscape (http://www.inkscape.org/) -->

<svg
   xmlns:dc="http://purl.org/dc/elements/1.1/"
   xmlns:cc="http://creativecommons.org/ns#"
   xmlns:rdf="http://www.w3.org/1999/02/22-rdf-syntax-ns#"
   xmlns:svg="http://www.w3.org/2000/svg"
   xmlns="http://www.w3.org/2000/svg"
   xmlns:sodipodi="http://sodipodi.sourceforge.net/DTD/sodipodi-0.dtd"
   xmlns:inkscape="http://www.inkscape.org/namespaces/inkscape"
   id="svg2"
   sodipodi:version="0.32"
   inkscape:version="0.48.5 r10040"
   width="185.95668"
   height="436.21927"
   sodipodi:docname="Antler4.svg"
   version="1.0"
   inkscape:r_cx="true"
   inkscape:r_cy="true">
  <metadata
     id="metadata7">
    <rdf:RDF>
      <cc:Work
         rdf:about="">
        <dc:format>image/svg+xml</dc:format>
        <dc:type
           rdf:resource="http://purl.org/dc/dcmitype/StillImage" />
      </cc:Work>
    </rdf:RDF>
  </metadata>
  <defs
     id="defs5" />
  <sodipodi:namedview
     inkscape:window-height="736"
     inkscape:window-width="1018"
     inkscape:pageshadow="2"
     inkscape:pageopacity="0.0"
     borderopacity="1.0"
     bordercolor="#666666"
     pagecolor="#ffffff"
     id="base"
     width="29.7cm"
     height="15cm"
     units="cm"
     showguides="true"
     inkscape:guide-bbox="true"
     inkscape:zoom="0.77485465"
     inkscape:cx="434.04961"
     inkscape:cy="249.19618"
     inkscape:window-x="212"
     inkscape:window-y="100"
     inkscape:current-layer="svg2"
     showgrid="false"
     fit-margin-top="0"
     fit-margin-left="0"
     fit-margin-right="0"
     fit-margin-bottom="0"
     inkscape:window-maximized="0">
    <sodipodi:guide
       orientation="horizontal"
       position="-278.21079,-138.02753"
       id="guide2214" />
  </sodipodi:namedview>
  <path
     style="fill:#030303"
     d="m 98.638356,417.72274 c 5.680634,-6.05783 0.66716,-8.68292 -2.05012,-10.88753 -2.71728,-2.20461 -8.69657,-1.73066 -20.07506,-3.13164 -25.6779,-3.16156 -42.41588,-11.57975 -53.81651,-27.06642 -9.10816,-12.37255 -12.07405,-20.16531 -18.6546399,-49.01403 -4.67462,-20.49317 -5.0725,-24.7067 -2.3331,-24.7067 3.14223,0 9.3137799,10.31015 15.0101599,25.07586 2.97955,7.72337 6.46604,16.75068 7.74773,20.06069 1.28172,3.31002 5.92868,9.93091 10.32659,14.71309 13.69005,14.88624 28.86771,20.29729 46.08769,16.43091 15.67949,-3.52051 20.245064,-7.95025 24.128634,-23.41084 5.50582,-21.91869 6.00531,-36.11193 2.11302,-60.04085 -5.6889,-34.97398 -10.004954,-43.62153 -30.249824,-60.60767 -16.52008,-13.86092 -19.89978,-17.89827 -25.8347,-30.86181 -9.91184,-21.65036 -14.95861,-74.88435 -7.09928,-74.88435 1.80615,0 3.50427,2.75867 4.32194,7.02124 0.7408,3.86168 2.88621,14.68784 4.76762,24.05813 7.7473,38.58515 30.2784,64.49459 48.547514,55.82681 12.33422,-5.85196 22.61428,-41.68445 22.63063,-78.8819 0.008,-17.49811 -2.46899,-25.87932 -16.07226,-54.38894 C 93.464056,52.28081 84.210066,0.969481 94.941626,9.875888 c 1.52652,1.266911 3.40051,5.634957 4.16438,9.706772 3.007424,16.03091 11.256604,38.06745 17.457184,46.63438 11.12529,15.3711 12.98574,15.49232 28.29899,1.84386 C 156.45355,57.72967 167.74234,40.10256 172.39072,25.07586 176.41716,12.059688 182.32835,0 184.68191,0 c 1.34797,0 1.65228,1.735322 0.79151,4.513655 -0.76913,2.482511 -3.42715,13.992332 -5.90673,25.577375 -4.6956,21.9388 -8.10873,30.32687 -17.1417,42.12745 -15.32257,20.01728 -16.33584,23.43899 -18.31154,61.83634 -1.9914,38.70287 -3.80812,51.14226 -11.08038,75.86949 -5.88015,19.99373 -5.97764,31.39416 -0.51221,59.89197 5.20497,27.13963 5.58245,88.23191 0.68893,111.49495 -2.58332,12.28063 -2.59086,14.9346 -0.0598,20.99239 1.82486,4.36751 4.27194,6.93446 6.61068,6.93446 8.92036,0 11.22754,10.11207 4.00043,17.86946 -5.48322,5.88555 -7.99783,3.70379 -24.29141,7.02733 0,0 -14.46396,5.46819 -20.070694,-1.30889 -5.60673,-6.77708 -6.44131,-9.04541 -0.76068,-15.10324 z"
     id="path2223"
     inkscape:r_cx="true"
     inkscape:r_cy="true"
     sodipodi:nodetypes="ccssssssssssssssssssssssssssssssssssczc"
     inkscape:connector-curvature="0" />
</svg>
