<?xml version="1.0" encoding="UTF-8" standalone="no"?>
<!-- Created with Inkscape (http://www.inkscape.org/) -->

<svg
   xmlns:dc="http://purl.org/dc/elements/1.1/"
   xmlns:cc="http://creativecommons.org/ns#"
   xmlns:rdf="http://www.w3.org/1999/02/22-rdf-syntax-ns#"
   xmlns:svg="http://www.w3.org/2000/svg"
   xmlns="http://www.w3.org/2000/svg"
   xmlns:sodipodi="http://sodipodi.sourceforge.net/DTD/sodipodi-0.dtd"
   xmlns:inkscape="http://www.inkscape.org/namespaces/inkscape"
   id="svg2"
   sodipodi:version="0.32"
   inkscape:version="0.48.5 r10040"
   width="229.48764"
   height="476.49582"
   sodipodi:docname="Antler5.svg"
   version="1.0"
   inkscape:r_cx="true"
   inkscape:r_cy="true">
  <sodipodi:namedview
     pagecolor="#ffffff"
     bordercolor="#666666"
     borderopacity="1"
     objecttolerance="10"
     gridtolerance="10"
     guidetolerance="10"
     inkscape:pageopacity="0"
     inkscape:pageshadow="2"
     inkscape:window-width="640"
     inkscape:window-height="480"
     id="namedview6"
     showgrid="false"
     fit-margin-top="0"
     fit-margin-left="0"
     fit-margin-right="0"
     fit-margin-bottom="0"
     inkscape:zoom="0.27176955"
     inkscape:cx="102.68799"
     inkscape:cy="248.16675"
     inkscape:window-x="456"
     inkscape:window-y="152"
     inkscape:window-maximized="0"
     inkscape:current-layer="svg2" />
  <metadata
     id="metadata7">
    <rdf:RDF>
      <cc:Work
         rdf:about="">
        <dc:format>image/svg+xml</dc:format>
        <dc:type
           rdf:resource="http://purl.org/dc/dcmitype/StillImage" />
      </cc:Work>
    </rdf:RDF>
  </metadata>
  <defs
     id="defs5" />
  <path
     style="fill:#030303"
     d="m 150.44626,475.40434 c -4.92341,-2.03857 -13.03945,-10.45779 -13.03945,-12.53988 0,-2.0821 1.93796,-4.36302 4.30657,-6.88428 3.56354,-3.79322 3.86728,-5.11347 1.76044,-7.65205 -3.49176,-4.20733 -8.22783,-3.87541 -27.17798,1.90474 -41.392465,12.62547 -65.264795,10.34291 -87.074895,-8.32573 -10.97362,-9.39302 -14.62896,-17.19263 -20.9923698,-44.79259 -2.92541,-12.68839 -6.14874,-26.62623 -7.16299,-30.97301 -2.37867,-10.19438 -0.78762,-12.52659 4.90031,-7.18307 5.2180998,4.90215 8.9288498,13.17871 14.9305098,33.30135 4.87396,16.34166 13.19648,30.50571 20.88432,35.54299 2.93107,1.92051 10.96337,4.93525 17.84954,6.69941 22.61187,5.79288 52.940885,-2.50051 67.700155,-18.51243 7.14257,-7.74878 8.07032,-9.88958 8.07032,-18.62262 0,-13.10153 -8.78109,-54.05882 -15.18392,-70.8217 -6.57992,-17.22655 -17.03166,-27.12919 -36.475295,-34.55903 -35.32424,-13.49813 -54.2838,-33.77359 -61.58214,-65.85625 -1.57284,-6.91402 -3.85575,-16.55128 -5.07311,-21.41609 -2.20565,-8.81423 -0.58479,-14.02965 3.56344,-11.46591 1.07283,0.66304 5.75947,10.68264 10.41479,22.26578 13.92208,34.64018 23.59243,45.81946 45.28133,52.34686 12.80024,3.85232 30.873525,3.71871 36.568635,-0.27029 6.02702,-4.22149 11.63562,-15.68299 14.20028,-29.01908 1.16027,-6.03337 3.59026,-17.74023 5.39996,-26.01526 2.44983,-11.20201 3.03785,-21.19512 2.30186,-39.11835 -1.51338,-36.85422 -5.55944,-43.69301 -45.977335,-77.712446 -13.0752,-11.00529 -21.994,-25.46012 -26.49526,-42.941252 -6.09147,-23.656819 -3.10164,-25.188224 7.68523,-3.936402 10.09588,19.890444 24.21847,35.418094 38.259915,42.066404 22.23898,10.529666 24.30048,7.97296 25.65858,-31.822228 1.08475,-31.78486 6.35521,-56.100825 12.68644,-58.530343 4.98158,-1.911608 5.27827,0.367658 2.31033,17.748125 -3.52821,20.661496 -1.84849,38.184765 5.92812,61.843376 6.41717,19.52292 8.86919,21.126256 19.68836,12.87407 4.98861,-3.80499 9.58913,-10.68516 15.18288,-22.70629 4.41405,-9.485931 9.48936,-19.955339 11.27848,-23.265352 4.93882,-9.137236 22.6708,-29.088001 25.85305,-29.088001 4.03942,0 3.50107,2.310558 -2.36303,10.142123 -8.17692,10.920352 -13.86858,23.407479 -20.57386,45.13776 -5.27053,17.08057 -8.23656,22.84056 -19.34487,37.567486 -15.13938,20.07118 -18.04154,29.26735 -20.07936,63.62601 -1.64107,27.66911 -3.72812,42.51123 -11.48998,81.71108 l -6.44759,32.56239 7.29174,31.63182 c 4.01047,17.39749 9.0686,39.30503 11.24029,48.6834 4.76896,20.59461 8.40735,43.65985 8.40735,53.29768 0,9.15767 5.3133,19.64195 9.1629,18.08036 1.58044,-0.6411 13.98407,2.21805 15.64321,9.21269 2.12535,8.96009 -5.14678,16.53885 -23.47584,21.90046 -18.32906,5.36161 -19.47666,5.92213 -24.40006,3.88357 z"
     id="path2225"
     inkscape:r_cx="true"
     inkscape:r_cy="true"
     sodipodi:nodetypes="czssssssssssssssssssssssssssssssssssssssscccsssszz"
     inkscape:connector-curvature="0" />
</svg>
