<?xml version="1.0" encoding="UTF-8" standalone="no"?>
<!-- Created with Inkscape (http://www.inkscape.org/) -->

<svg
   xmlns:dc="http://purl.org/dc/elements/1.1/"
   xmlns:cc="http://creativecommons.org/ns#"
   xmlns:rdf="http://www.w3.org/1999/02/22-rdf-syntax-ns#"
   xmlns:svg="http://www.w3.org/2000/svg"
   xmlns="http://www.w3.org/2000/svg"
   xmlns:sodipodi="http://sodipodi.sourceforge.net/DTD/sodipodi-0.dtd"
   xmlns:inkscape="http://www.inkscape.org/namespaces/inkscape"
   id="svg2"
   sodipodi:version="0.32"
   inkscape:version="0.48.5 r10040"
   width="253.75237"
   height="485.08105"
   sodipodi:docname="Antler6.svg"
   version="1.0"
   inkscape:r_cx="true"
   inkscape:r_cy="true">
  <sodipodi:namedview
     pagecolor="#ffffff"
     bordercolor="#666666"
     borderopacity="1"
     objecttolerance="10"
     gridtolerance="10"
     guidetolerance="10"
     inkscape:pageopacity="0"
     inkscape:pageshadow="2"
     inkscape:window-width="640"
     inkscape:window-height="480"
     id="namedview2993"
     showgrid="false"
     fit-margin-top="0"
     fit-margin-left="0"
     fit-margin-right="0"
     fit-margin-bottom="0"
     inkscape:zoom="0.27176955"
     inkscape:cx="-75.897835"
     inkscape:cy="249.66791"
     inkscape:window-x="346"
     inkscape:window-y="241"
     inkscape:window-maximized="0"
     inkscape:current-layer="svg2" />
  <metadata
     id="metadata7">
    <rdf:RDF>
      <cc:Work
         rdf:about="">
        <dc:format>image/svg+xml</dc:format>
        <dc:type
           rdf:resource="http://purl.org/dc/dcmitype/StillImage" />
      </cc:Work>
    </rdf:RDF>
  </metadata>
  <defs
     id="defs5" />
  <path
     style="fill:#030303"
     d="m 111.92544,84.254899 c -6.15809,-12.47091 -8.68963,-25.044065 -8.28685,-37.517598 0.40278,-12.473533 1.55898,-20.392011 3.21958,-22.049988 4.0978,-4.091306 6.37021,1.547608 6.40548,15.894989 0.0169,6.891208 1.54206,16.340096 3.39984,21.063724 5.27819,13.420373 20.56931,35.475793 26.84576,38.721474 8.36266,4.32449 18.58832,3.75158 23.13654,-1.296281 3.52225,-3.90917 3.7775,-7.24764 3.25938,-42.628962 C 169.32112,16.559541 171.61097,0 177.71,0 c 2.13913,0 3.06188,5.133695 3.96634,22.066759 1.35885,25.440287 12.84983,76.96931 17.56793,78.779811 8.04383,3.08671 24.33604,-13.934961 33.78535,-35.298063 4.91094,-11.102724 13.74065,-43.626872 15.03017,-55.363456 0.35433,-3.224927 1.77264,-6.23403 3.15181,-6.686896 3.13551,-1.029581 3.43927,19.981606 0.51825,35.847899 -2.51087,13.638519 -12.70385,49.175315 -14.63449,52.933115 -1.93064,3.7578 -7.99856,11.496881 -15.25521,20.644891 -15.23985,19.21194 -20.00795,29.50625 -20.17115,43.54932 -0.20197,17.38189 -5.98003,67.69913 -9.21447,80.24276 -1.70701,6.62003 -3.63354,24.70059 -4.28116,40.17902 -1.10755,26.4705 -0.79298,29.96369 5.29452,58.79351 5.63184,26.67183 6.53561,35.12821 6.96188,65.1396 0.48704,34.2905 1.47605,41.32968 5.85991,41.70762 1.26112,0.10873 4.50987,0.33441 7.2194,0.50152 2.99619,0.1848 6.06457,2.32331 7.83121,5.45801 9.86421,17.50285 -20.10654,29.10134 -39.80498,35.47483 -19.69844,6.37349 -20.22735,-16.57316 -17.9504,-20.8277 1.99529,-3.72823 2.0437,-5.38176 0.21117,-7.21428 -2.52311,-2.52311 -3.06388,-2.43703 -41.47441,6.60081 -22.03432,5.18458 -44.719147,4.2105 -57.879997,-2.48538 -10.2266,-5.203 -35.72644,-27.20407 -49.16835,-59.28728 -4.14845,-9.90154 -8.5459995,-22.24653 -11.4273795,-26.81093 -7.26598,-11.51005 -3.57333002,-15.1057 5.53405,-5.38871 9.8847595,10.54643 24.5195195,31.27642 30.5032795,43.20768 11.92835,23.78431 48.64204,37.61556 79.120617,29.8073 6.96802,-1.78512 30.23219,-7.58186 31.57037,-11.79808 2.41906,-7.62184 -3.29494,-9.93 -28.58788,-11.54807 -26.844857,-1.71734 -43.799527,-7.17878 -56.265907,-18.1244 -15.32562,-13.45606 -35.08935,-36.3877 -33.08681,-38.39024 2.48094,-2.48094 9.15487,0.74538 17.46953,8.44513 3.31001,3.06521 13.30417,10.49634 22.20923,16.5136 14.22664,9.61312 18.06988,11.21992 31.677507,13.24381 20.93672,3.11394 32.48382,2.77696 44.37844,-1.2951 13.01937,-4.45713 15.6355,-9.34704 14.17366,-26.49261 -1.30268,-15.27872 -4.40705,-26.20355 -12.54182,-44.13669 C 141.34352,308.90536 128.1164,297.88654 100.59616,286.83326 72.434473,275.52232 53.555413,264.18462 43.072443,252.28769 32.402003,240.17804 30.583133,236.5776 24.027303,214.5881 c -2.95043,-9.89634 -5.84318,-19.57312 -6.42831,-21.50396 -0.68958,-2.2755 0.0141,-3.51062 2.00011,-3.51062 1.81353,0 7.67701,8.39187 14.36699,20.56221 12.99515,23.64054 20.90263,32.93135 36.54426,42.93716 16.47917,10.54159 34.259037,15.08078 52.814357,13.48345 24.67216,-2.12391 32.37179,-8.57366 40.93658,-34.2914 5.68968,-17.08453 6.33583,-28.00938 3.08004,-52.07509 -2.96918,-21.94715 -10.34187,-36.46516 -29.88599,-58.85047 -11.47624,-13.14454 -19.37181,-24.613571 -25.5299,-37.084481 z"
     id="path2227"
     inkscape:r_cx="true"
     inkscape:r_cy="true"
     sodipodi:nodetypes="czssssssssssssszssssssssszssssssssssssssssssssssssssssssz"
     inkscape:connector-curvature="0" />
</svg>
