<?xml version="1.0" encoding="UTF-8" standalone="no"?>
<!-- Created with Inkscape (http://www.inkscape.org/) -->

<svg
   xmlns:dc="http://purl.org/dc/elements/1.1/"
   xmlns:cc="http://creativecommons.org/ns#"
   xmlns:rdf="http://www.w3.org/1999/02/22-rdf-syntax-ns#"
   xmlns:svg="http://www.w3.org/2000/svg"
   xmlns="http://www.w3.org/2000/svg"
   xmlns:sodipodi="http://sodipodi.sourceforge.net/DTD/sodipodi-0.dtd"
   xmlns:inkscape="http://www.inkscape.org/namespaces/inkscape"
   id="svg2"
   sodipodi:version="0.32"
   inkscape:version="0.48.5 r10040"
   width="216.5022"
   height="515.88263"
   sodipodi:docname="Antler7.svg"
   version="1.0"
   inkscape:r_cx="true"
   inkscape:r_cy="true">
  <sodipodi:namedview
     pagecolor="#ffffff"
     bordercolor="#666666"
     borderopacity="1"
     objecttolerance="10"
     gridtolerance="10"
     guidetolerance="10"
     inkscape:pageopacity="0"
     inkscape:pageshadow="2"
     inkscape:window-width="640"
     inkscape:window-height="480"
     id="namedview6"
     showgrid="false"
     fit-margin-top="0"
     fit-margin-left="0"
     fit-margin-right="0"
     fit-margin-bottom="0"
     inkscape:zoom="0.27176955"
     inkscape:cx="-291.56578"
     inkscape:cy="255.82067"
     inkscape:window-x="350"
     inkscape:window-y="144"
     inkscape:window-maximized="0"
     inkscape:current-layer="svg2" />
  <metadata
     id="metadata7">
    <rdf:RDF>
      <cc:Work
         rdf:about="">
        <dc:format>image/svg+xml</dc:format>
        <dc:type
           rdf:resource="http://purl.org/dc/dcmitype/StillImage" />
      </cc:Work>
    </rdf:RDF>
  </metadata>
  <defs
     id="defs5" />
  <path
     style="fill:#030303"
     d="m 152.57203,513.24347 c -6.84364,-5.6939 2.12361,-21.3853 -10.84631,-19.60101 -19.24541,2.64761 -62.620085,15.34433 -82.671965,2.47029 -22.6441,-14.53834 -39.33155,-32.13907 -48.0467,-62.53172 -1.8500702,-6.45182 -5.0993002,-14.71606 -7.2204802,-18.36498 -4.13433,-7.11195 -4.99842,-12.42326 -2.02114,-12.42326 3.44649,0 17.3434102,17.60825 23.1854302,29.37731 12.4296,25.0402 24.32268,38.60919 38.67354,44.12323 17.14717,6.58845 64.001535,-0.57231 73.673335,-11.25954 2.74007,-3.02774 2.93729,-4.55238 1.04595,-8.08637 -1.84649,-3.4502 -3.44236,-4.07613 -7.68038,-3.01245 -2.94228,0.73845 -16.53259,1.2898 -30.20073,1.22521 -20.954825,-0.0991 -26.209625,-0.77511 -33.515745,-4.31195 -11.06086,-5.35446 -19.19212,-14.67219 -27.57051,-31.59342 -3.66358,-7.3991 -7.92175,-15.46154 -9.46257,-17.9165 -2.19398,-3.49566 -2.27438,-4.9907 -0.3707,-6.89438 3.33904,-3.33904 10.62228,3.59552 21.57052,20.53789 7.22508,11.18079 10.16658,13.90355 19.29343,17.85869 17.21317,7.45939 41.306835,4.98653 58.663825,-6.02093 l 9.27779,-5.8838 0,-15.69886 c 0,-12.87013 -0.93629,-17.57774 -5.19618,-26.12624 -8.95074,-17.96178 -15.45409,-21.52867 -66.139725,-36.27544 -25.98778,-7.56106 -36.01739,-19.05842 -47.84027,-54.84144 -2.65179,-8.02586 -6.69227,-18.65475 -8.97885,-23.61977 -5.2041602,-11.30019 -5.2696602,-14.04249 -0.3354702,-14.04249 5.2660702,0 12.4300202,10.00589 19.7311902,27.55854 13.27157,31.90598 22.01554,40.63808 45.72228,45.66023 16.58209,3.51285 42.831035,3.90608 49.767605,0.74556 8.17483,-3.72471 10.31671,-12.15762 9.75353,-38.40106 -0.55115,-25.68217 -5.04396,-46.51608 -12.70392,-58.91016 -2.40943,-3.89853 -14.41503,-15.48017 -26.679105,-25.73698 -12.26408,-10.25679 -24.66119,-21.23781 -27.54913,-24.40229 -13.00967,-14.25537 -19.90152,-33.56525 -22.70659,-63.62041 -1.62353,-17.395353 2.09983,-17.472803 7.51453,-0.1563 8.79076,28.11321 14.30943,40.15827 22.30231,48.67693 10.16387,10.83248 26.238985,20.3359 34.440395,20.36078 6.87377,0.0208 12.84885,-5.17766 12.84885,-11.17891 0,-13.29499 -31.327295,-86.024998 -45.409315,-105.423045 -6.92182,-9.534856 -8.3509,-13.773716 -4.64363,-13.773716 4.51169,0 25.39914,23.784456 32.591915,37.112278 17.57425,32.564103 24.77712,44.133523 27.47661,44.133523 4.39574,0 12.05118,-12.83822 12.05118,-20.2099 0,-3.61741 -1.98238,-15.896463 -4.40531,-27.286785 -7.42183,-34.890658 -5.59791,-88.3360185 2.91309,-85.36073974 1.73345,0.605978 2.31001,4.86979304 1.88848,13.96598774 -0.60969,13.156472 7.72116,60.333472 12.13852,68.739706 6.99117,13.304148 12.25441,7.391908 31.37501,-35.243832 5.7242,-12.76408 13.147,-26.530728 16.4951,-30.592553 8.8524,-10.7394577 15.9771,-9.5861947 8.7663,1.418971 -1.6761,2.557943 -6.5606,14.938735 -10.8546,27.512867 -10.5264,30.824226 -16.504,45.345975 -22.71296,55.177578 -2.86302,4.53347 -6.23604,12.20668 -7.49562,17.05158 -1.25959,4.8449 -4.15304,13.77393 -6.42993,19.84229 -2.27687,6.06836 -5.82905,15.53429 -7.89376,21.0354 -5.33873,14.22444 -4.85124,37.10784 1.50423,70.60871 5.31582,28.02067 5.72741,37.93465 4.48208,107.95975 -0.22572,12.69298 1.25339,21.90824 7.0741,44.07348 4.04773,15.41369 8.79431,39.33607 10.54793,53.16083 1.75363,13.82474 2.47913,39.14292 12.26223,37.02068 8.993,-1.95085 13.8077,10.65691 13.8077,16.30535 0,5.64844 -12.5473,15.37149 -23.9948,20.78707 -11.63195,5.50279 -24.41895,9.99442 -31.26259,4.30052 z"
     id="path1319"
     inkscape:r_cx="true"
     inkscape:r_cy="true"
     sodipodi:nodetypes="cssssssssssssssssscccssssssssssssssssssssssssssssssssssssssszsz"
     inkscape:connector-curvature="0" />
</svg>
